<?xml version="1.0" standalone="no"?>
<!DOCTYPE svg PUBLIC "-//W3C//DTD SVG 20010904//EN"
 "http://www.w3.org/TR/2001/REC-SVG-20010904/DTD/svg10.dtd">
<svg version="1.0" xmlns="http://www.w3.org/2000/svg"
 width="500.000000pt" height="500.000000pt" viewBox="0 0 500.000000 500.000000"
 preserveAspectRatio="xMidYMid meet">
<metadata>
Created by potrace 1.11, written by Peter Selinger 2001-2013
</metadata>
<g transform="translate(0.000000,500.000000) scale(0.100000,-0.100000)"
fill="#000000" stroke="none">
<path d="M2319 4896 c-2 -2 -41 -7 -86 -10 -46 -4 -93 -9 -105 -12 -13 -2 -35
-6 -51 -9 -598 -110 -1124 -434 -1494 -920 -89 -118 -147 -211 -234 -375 -97
-184 -197 -504 -224 -717 -4 -26 -10 -75 -15 -108 -9 -63 -6 -502 4 -545 3
-14 10 -56 16 -95 46 -293 162 -600 331 -877 33 -53 66 -102 74 -108 8 -7 15
-17 15 -22 0 -10 99 -135 165 -207 250 -276 556 -490 892 -625 110 -44 289
-100 353 -111 19 -3 42 -8 51 -11 17 -5 33 -7 119 -19 25 -3 51 -8 57 -10 21
-7 210 -18 313 -19 131 0 300 12 390 30 41 8 91 17 110 20 64 10 224 55 335
96 249 91 532 257 734 431 62 53 234 230 276 282 22 28 43 52 46 55 16 14 146
203 182 264 176 302 282 627 323 991 8 72 8 411 0 475 -25 200 -66 381 -123
544 -246 709 -812 1266 -1525 1500 -111 36 -298 81 -383 91 -27 3 -81 10 -120
15 -67 8 -419 13 -426 6z"/>
</g>
</svg>
